<?xml version="1.0"?>
<svg width="640" height="480" xmlns="http://www.w3.org/2000/svg" xmlns:svg="http://www.w3.org/2000/svg">
 <!-- Created with SVG-edit - https://github.com/SVG-Edit/svgedit-->

 <g class="layer">
  <title>Layer 1</title>
  <polygon fill="#f20404" id="svg_6" points="58.5,101.5 58.5,101.5 58.5,101.5 58.5,101.5 58.5,101.5 58.5,101.5 58.5,101.5 58.5,101.5 58.5,101.5 58.5,101.5 58.5,101.5 58.5,101.5 " stroke="#f70707" stroke-width="0"/>
  <polygon fill="#f20404" id="svg_7" points="NaNNaN,NaNNaN NaNNaN,NaNNaN NaNNaN,NaNNaN NaNNaN,NaNNaN NaNNaN,NaNNaN NaNNaN,NaNNaN " stroke="#f70707" stroke-width="0"/>
  <polygon fill="#f20404" id="svg_8"/>
  <polygon fill="#f20404" id="svg_9" points="NaNNaN,NaNNaN NaNNaN,NaNNaN NaNNaN,NaNNaN NaNNaN,NaNNaN NaNNaN,NaNNaN NaNNaN,NaNNaN " stroke-width="0"/>
  <polygon fill="#f20404" id="svg_10"/>
  <polygon fill="#f20404" id="svg_11"/>
  <polygon fill="#f20404" id="svg_12" points="NaNNaN,NaNNaN NaNNaN,NaNNaN NaNNaN,NaNNaN NaNNaN,NaNNaN NaNNaN,NaNNaN NaNNaN,NaNNaN " stroke-width="0"/>
  <polygon fill="#f20404" id="svg_13"/>
  <polygon fill="#f20404" id="svg_14" points="NaNNaN,NaNNaN NaNNaN,NaNNaN NaNNaN,NaNNaN NaNNaN,NaNNaN NaNNaN,NaNNaN NaNNaN,NaNNaN " stroke-width="0"/>
  <polygon fill="#f20404" id="svg_15"/>
  <text fill="#0000ff" font-family="Fantasy" font-size="24" id="svg_21" stroke="#f70707" stroke-dasharray="null" stroke-linecap="null" stroke-linejoin="null" stroke-width="0" text-anchor="middle" transform="matrix(2.60585 0 0 1.93103 -26.1202 -18.1552)" x="31.5" xml:space="preserve" y="43.5">JJV</text>
  <polygon cx="107.5" cy="37.5" fill="#ff0000" id="svg_22" orient="point" point="5" points="107.5,20.166666666666668 111.57531108256114,31.89081550566703 123.98497961578266,32.143705430834245 114.09399184631306,39.6425178276663 117.68827770640287,51.52296123583242 107.5,44.43333333333333 97.31172229359714,51.52296123583242 100.90600815368694,39.6425178276663 91.01502038421734,32.143705430834245 103.42468891743886,31.89081550566703 107.5,20.166666666666668 111.57531108256114,31.89081550566703 " r="17.333333" r2="6.933333" shape="star" stroke="#f70707" stroke-width="0" strokeWidth="0" strokecolor="#f70707"/>
  <polygon cx="115.5" cy="32.5" fill="#ff0000" id="svg_23" orient="point" point="5" points="115.5,32.5 115.5,32.5 115.5,32.5 115.5,32.5 115.5,32.5 115.5,32.5 115.5,32.5 115.5,32.5 115.5,32.5 115.5,32.5 115.5,32.5 115.5,32.5 " r="0" r2="0" shape="star" stroke="#f70707" stroke-width="0" strokeWidth="0" strokecolor="#f70707"/>
  <polygon cx="109.5" cy="40.5" fill="#ff0000" id="svg_24" orient="point" point="5" points="109.5,40.5 109.5,40.5 109.5,40.5 109.5,40.5 109.5,40.5 109.5,40.5 109.5,40.5 109.5,40.5 109.5,40.5 109.5,40.5 109.5,40.5 109.5,40.5 " r="0" r2="0" shape="star" stroke="#f70707" stroke-width="0" strokeWidth="0" strokecolor="#f70707"/>
  <polygon cx="115.5" cy="35.5" fill="#ff0000" id="svg_25" orient="point" point="5" points="115.5,35.5 115.5,35.5 115.5,35.5 115.5,35.5 115.5,35.5 115.5,35.5 115.5,35.5 115.5,35.5 115.5,35.5 115.5,35.5 115.5,35.5 115.5,35.5 " r="0" r2="0" shape="star" stroke="#f70707" stroke-width="0" strokeWidth="0" strokecolor="#f70707"/>
  <polygon cx="108.5" cy="36.5" fill="#ff0000" id="svg_26" orient="point" point="5" r="0" r2="0" shape="star" strokeWidth="0" strokecolor="#f70707"/>
  <polygon cx="103.5" cy="37.5" fill="#ff0000" id="svg_27" orient="point" point="5" r="0" r2="0" shape="star" strokeWidth="0" strokecolor="none"/>
  <polygon cx="112.5" cy="48.5" fill="#ff0000" id="svg_28" orient="point" point="5" r="0" r2="0" shape="star" strokeWidth="0" strokecolor="none"/>
  <polygon cx="115.5" cy="34.5" fill="#ff0000" id="svg_29" orient="point" point="5" points="115.5,34.5 115.5,34.5 115.5,34.5 115.5,34.5 115.5,34.5 115.5,34.5 115.5,34.5 115.5,34.5 115.5,34.5 115.5,34.5 115.5,34.5 115.5,34.5 " r="0" r2="0" shape="star" stroke-width="0" strokeWidth="0" strokecolor="none"/>
  <polygon cx="107.5" cy="50.5" fill="#ff0000" id="svg_30" orient="point" point="5" r="0" r2="0" shape="star" strokeWidth="0" strokecolor="none"/>
  <polygon cx="106.5" cy="40.5" fill="#ff0000" id="svg_31" orient="point" point="5" points="106.5,40.5 106.5,40.5 106.5,40.5 106.5,40.5 106.5,40.5 106.5,40.5 106.5,40.5 106.5,40.5 106.5,40.5 106.5,40.5 106.5,40.5 106.5,40.5 " r="0" r2="0" shape="star" stroke-width="0" strokeWidth="0" strokecolor="none"/>
  <polygon cx="169.5" cy="30.5" fill="#ff0000" id="svg_32" orient="point" point="5" r="0" r2="0" shape="star" strokeWidth="0" strokecolor="none"/>
  <polygon cx="169.5" cy="30.5" fill="#ff0000" id="svg_33" orient="point" point="5" r="0" r2="0" shape="star" strokeWidth="0" strokecolor="none"/>
  <polygon cx="9.5" cy="7.5" fill="#ff0000" id="svg_34" orient="point" point="5" r="0" r2="0" shape="star" strokeWidth="0" strokecolor="none"/>
 </g>
</svg>